name 900006_16EmgEnv.mot
datacolumns 51
datarows 11
range 0.42129630 0.43055558
endheader

                time	   rect_fem_r_emgRec	   rect_fem_l_emgRec	   med_hams_r_emgRec	   med_hams_l_emgRec	   lat_hams_r_emgRec	   lat_hams_l_emgRec	    tib_ant_r_emgRec	    tib_ant_l_emgRec	    gas_sol_r_emgRec	    gas_sol_l_emgRec	   rect_fem_r_emgEnv	   rect_fem_l_emgEnv	   med_hams_r_emgEnv	   med_hams_l_emgEnv	   lat_hams_r_emgEnv	   lat_hams_l_emgEnv	    tib_ant_r_emgEnv	    tib_ant_l_emgEnv	    gas_sol_r_emgEnv	    gas_sol_l_emgEnv	   rect_fem_r_emgAve	   rect_fem_l_emgAve	   med_hams_r_emgAve	   med_hams_l_emgAve	   lat_hams_r_emgAve	   lat_hams_l_emgAve	    tib_ant_r_emgAve	    tib_ant_l_emgAve	    gas_sol_r_emgAve	    gas_sol_l_emgAve	   rect_fem_r_emgSDp	   rect_fem_l_emgSDp	   med_hams_r_emgSDp	   med_hams_l_emgSDp	   lat_hams_r_emgSDp	   lat_hams_l_emgSDp	    tib_ant_r_emgSDp	    tib_ant_l_emgSDp	    gas_sol_r_emgSDp	    gas_sol_l_emgSDp	   rect_fem_r_emgSDm	   rect_fem_l_emgSDm	   med_hams_r_emgSDm	   med_hams_l_emgSDm	   lat_hams_r_emgSDm	   lat_hams_l_emgSDm	    tib_ant_r_emgSDm	    tib_ant_l_emgSDm	    gas_sol_r_emgSDm	    gas_sol_l_emgSDm	
          0.42129630	          0.01667780	          0.00477067	          0.03388712	          0.01257595	          0.00123195	          0.01772154	          0.03256356	          0.03876322	          0.01239156	          0.14226951	          0.07145438	          0.12216533	          0.17573766	          0.06244505	          0.10100223	          0.05864703	          0.06433040	          0.06304605	          0.02831009	          0.53043658	          0.03127352	          0.21248099	          0.21195857	          0.03605282	          0.05428983	          0.08159701	          0.09438149	          0.08969627	          0.06012776	          0.43438503	          0.06201799	          0.30803537	          0.31075181	          0.05930591	          0.09841378	          0.17515131	          0.18575908	          0.16620961	          0.11609893	          0.66856450	          0.00052905	          0.11692662	          0.11316533	          0.01279972	          0.01016588	         -0.01195730	          0.00300390	          0.01318292	          0.00415659	          0.20020556	
          0.42222220	          0.00787031	          0.04437481	          0.06829161	          0.00101532	          0.00218894	          0.01049251	          0.03110026	          0.00972071	          0.01073196	          0.15067639	          0.07303492	          0.11947153	          0.17942571	          0.06247241	          0.10214609	          0.05790824	          0.06464622	          0.06200573	          0.02732944	          0.53168678	          0.03199409	          0.21121767	          0.21383478	          0.03607800	          0.05451176	          0.08262519	          0.09289522	          0.09016227	          0.05946141	          0.43484205	          0.06300842	          0.30776349	          0.31317663	          0.05979526	          0.09893475	          0.17905537	          0.18462316	          0.16705130	          0.11501389	          0.66944666	          0.00097975	          0.11467185	          0.11449292	          0.01236074	          0.01008878	         -0.01380499	          0.00116729	          0.01327324	          0.00390893	          0.20023744	
          0.42314816	          0.02233372	          0.07189417	          0.02360583	          0.01026625	          0.01703942	          0.00513900	          0.02801033	          0.00016163	          0.00546418	          0.09069809	          0.07462735	          0.11676927	          0.18332321	          0.06248204	          0.10325604	          0.05721290	          0.06498994	          0.06103843	          0.02638460	          0.53293239	          0.03273146	          0.20993279	          0.21570860	          0.03611788	          0.05474158	          0.08366497	          0.09147038	          0.09065449	          0.05880417	          0.43533570	          0.06401715	          0.30746499	          0.31559034	          0.06031190	          0.09946617	          0.18299155	          0.18355285	          0.16793380	          0.11394202	          0.67037353	          0.00144577	          0.11240059	          0.11582686	          0.01192385	          0.01001699	         -0.01566161	         -0.00061209	          0.01337519	          0.00366632	          0.20029786	
          0.42407405	          0.00535210	          0.05735662	          0.03877670	          0.00563505	          0.00214000	          0.00261574	          0.02721750	          0.01069998	          0.00941200	          0.04714066	          0.07623126	          0.11406166	          0.18742822	          0.06247439	          0.10432953	          0.05656329	          0.06536006	          0.06014501	          0.02547580	          0.53417496	          0.03348562	          0.20862737	          0.21757965	          0.03617228	          0.05497933	          0.08471573	          0.09010774	          0.09117240	          0.05815635	          0.43586516	          0.06504411	          0.30714026	          0.31799232	          0.06085522	          0.10000807	          0.18695707	          0.18254889	          0.16885623	          0.11288378	          0.67134377	          0.00192713	          0.11011449	          0.11716697	          0.01148934	          0.00995059	         -0.01752561	         -0.00233341	          0.01348856	          0.00342892	          0.20038655	
          0.42500001	          0.03400281	          0.02483639	          0.02833392	          0.00328563	          0.07839201	          0.00686194	          0.02456743	          0.01058200	          0.01610153	          0.03101078	          0.07784624	          0.11135195	          0.19173818	          0.06244994	          0.10536412	          0.05596151	          0.06575502	          0.05932619	          0.02460319	          0.53541623	          0.03425677	          0.20730218	          0.21944799	          0.03624105	          0.05522511	          0.08577720	          0.08880767	          0.09171560	          0.05751805	          0.43643036	          0.06608955	          0.30678970	          0.32038266	          0.06142469	          0.10056061	          0.19095026	          0.18161169	          0.16981802	          0.11183935	          0.67235695	          0.00242399	          0.10781467	          0.11851331	          0.01105742	          0.00988960	         -0.01939586	         -0.00399634	          0.01361319	          0.00319675	          0.20050378	
          0.42592591	          0.05098422	          0.00740805	          0.00217622	          0.00608851	          0.10731302	          0.00462677	          0.01954191	          0.01845317	          0.01386373	          0.06985711	          0.07947182	          0.10864348	          0.19624994	          0.06240924	          0.10635747	          0.05540945	          0.06617318	          0.05858252	          0.02376684	          0.53665811	          0.03504491	          0.20595828	          0.22131321	          0.03632401	          0.05547893	          0.08684871	          0.08757086	          0.09228359	          0.05688954	          0.43703073	          0.06715342	          0.30641373	          0.32276081	          0.06201965	          0.10112377	          0.19496824	          0.18074186	          0.17081828	          0.11080917	          0.67341198	          0.00293640	          0.10550283	          0.11986560	          0.01062838	          0.00983410	         -0.02127083	         -0.00560014	          0.01374891	          0.00296992	          0.20064948	
          0.42685187	          0.05468263	          0.00874639	          0.00614360	          0.00383370	          0.04671181	          0.00566913	          0.01479138	          0.00027556	          0.00961430	          0.13470670	          0.08110754	          0.10593969	          0.20095977	          0.06235283	          0.10730731	          0.05490882	          0.06661284	          0.05791437	          0.02296674	          0.53790268	          0.03585021	          0.20459647	          0.22317542	          0.03642101	          0.05574092	          0.08792990	          0.08639770	          0.09287592	          0.05627094	          0.43766561	          0.06823594	          0.30601277	          0.32512683	          0.06263957	          0.10169769	          0.19900915	          0.17993985	          0.17185635	          0.10979338	          0.67450783	          0.00346448	          0.10318018	          0.12122402	          0.01020244	          0.00978414	         -0.02314936	         -0.00714445	          0.01389549	          0.00274850	          0.20082340	
          0.42777777	          0.05141000	          0.00548710	          0.00946035	          0.00164272	          0.01840503	          0.01015794	          0.01014006	          0.00555866	          0.00544278	          0.20717187	          0.08275287	          0.10324410	          0.20586332	          0.06228132	          0.10821153	          0.05446110	          0.06707223	          0.05732199	          0.02220283	          0.53915212	          0.03667267	          0.20321794	          0.22503418	          0.03653183	          0.05601107	          0.08902016	          0.08528884	          0.09349196	          0.05566249	          0.43833455	          0.06933708	          0.30558740	          0.32748014	          0.06328374	          0.10228236	          0.20307013	          0.17920623	          0.17293122	          0.10879240	          0.67564344	          0.00400827	          0.10084848	          0.12258821	          0.00977992	          0.00973978	         -0.02502981	         -0.00862855	          0.01405271	          0.00253258	          0.20102566	
          0.42870373	          0.05709679	          0.01808336	          0.01127604	          0.00655423	          0.06606838	          0.00528005	          0.00794943	          0.01531626	          0.00378152	          0.09655902	          0.08440727	          0.10056028	          0.21095571	          0.06219530	          0.10906813	          0.05406759	          0.06754950	          0.05680546	          0.02147495	          0.54040874	          0.03751247	          0.20182346	          0.22688961	          0.03665631	          0.05628950	          0.09011907	          0.08424458	          0.09413133	          0.05506429	          0.43903691	          0.07045704	          0.30513796	          0.32982089	          0.06395161	          0.10287794	          0.20714913	          0.17854138	          0.17404224	          0.10780639	          0.67681780	          0.00456790	          0.09850895	          0.12395833	          0.00936101	          0.00970106	         -0.02691099	         -0.01005222	          0.01422042	          0.00232220	          0.20125601	
          0.42962962	          0.08442805	          0.00122611	          0.03423398	          0.01027332	          0.09875892	          0.00969098	          0.00455598	          0.03054968	          0.00036637	          0.16048445	          0.08607014	          0.09789187	          0.21623147	          0.06209541	          0.10987523	          0.05372933	          0.06804277	          0.05636470	          0.02078287	          0.54167494	          0.03836958	          0.20041433	          0.22874130	          0.03679423	          0.05657621	          0.09122598	          0.08326556	          0.09479334	          0.05447662	          0.43977225	          0.07159577	          0.30466514	          0.33214851	          0.06464242	          0.10348437	          0.21124314	          0.17794582	          0.17518834	          0.10683576	          0.67802991	          0.00514338	          0.09616352	          0.12533410	          0.00894603	          0.00966804	         -0.02879117	         -0.01141471	          0.01439834	          0.00211748	          0.20151459	
          0.43055558	          0.07300853	          0.01509356	          0.03332124	          0.00862644	          0.09249572	          0.01841606	          0.00745589	          0.01697525	          0.00547948	          0.03309220	          0.08774087	          0.09524254	          0.22168462	          0.06198228	          0.11063111	          0.05344714	          0.06855008	          0.05599950	          0.02012632	          0.54295316	          0.03924417	          0.19899139	          0.23058929	          0.03694541	          0.05687129	          0.09234049	          0.08235211	          0.09547752	          0.05389955	          0.44053969	          0.07275349	          0.30416935	          0.33446302	          0.06535562	          0.10410181	          0.21535011	          0.17741998	          0.17636877	          0.10588063	          0.67927839	          0.00573486	          0.09381343	          0.12671556	          0.00853521	          0.00964076	         -0.03066913	         -0.01271576	          0.01458627	          0.00191846	          0.20180099	
